# xmcd
#
# Track frame offsets:
#	150
#	14817
#	33620
#	53145
#	70866
#	87920
#	103988
#	119331
#	144198
#	160745
#
# Disc length: 2306 seconds
#
# Revision: 1
# Processed by: cddbd v1.5.2PL0 Copyright (c) Steve Scherf et al.
# Submitted via: audiograbber 1.81.02
#
DISCID=8809000a
DTITLE=Die Zunft - Bar Mann
DYEAR=2005
DGENRE=Blues Rock
TTITLE0=Tut So Gut
TTITLE1=Buena Vista
TTITLE2=September
TTITLE3=Geh Doch
TTITLE4=Hilf Dir Erstmal Selbst
TTITLE5=Bar Mann
TTITLE6=Was Solls
TTITLE7=Im Garten
TTITLE8=Mr. Blues
TTITLE9=Der Winter Ist Vorbei
EXTD=
EXTT0=
EXTT1=
EXTT2=
EXTT3=
EXTT4=
EXTT5=
EXTT6=
EXTT7=
EXTT8=
EXTT9=
PLAYORDER=
